<?xml version="1.0" encoding="UTF-8"?>
<svg width="53px" height="60px" viewBox="0 0 53 60" version="1.1" xmlns="http://www.w3.org/2000/svg" xmlns:xlink="http://www.w3.org/1999/xlink">
    <!-- Generator: Sketch 51.2 (57519) - http://www.bohemiancoding.com/sketch -->
    <title>css</title>
    <desc>Created with Sketch.</desc>
    <defs></defs>
    <g id="Page-1" stroke="none" stroke-width="1" fill="none" fill-rule="evenodd">
        <g id="Index-1440" transform="translate(-450.000000, -657.000000)" fill="#131313" fill-rule="nonzero">
            <path d="M476.477147,681.444045 L461.057473,681.444045 L461.652064,688.067185 L476.477147,688.067185 L484.64747,688.067185 L483.87712,696.656922 L476.476939,698.650687 L476.470915,698.652761 L469.081537,696.66107 L468.609106,691.378858 L461.948528,691.378858 L462.878017,701.778206 L476.46946,705.544252 L476.5,705.535956 L476.5,705.534761 L490.079185,701.778206 L490.178907,700.659176 L491.738305,683.222548 L491.900145,681.444045 L493.097844,668.038704 L476.477147,668.038704 L459.862475,668.038704 L460.465583,674.661844 L476.477147,674.661844 L485.826471,674.661844 L485.222739,681.444045 L476.477147,681.444045 Z M476.46759,717 L454.823413,711.002115 L450,657 L503,657 L498.1716,710.99382 L476.46759,717 Z" id="css"></path>
        </g>
    </g>
</svg>