<?xml version="1.0" encoding="UTF-8"?>
<svg width="50px" height="49px" viewBox="0 0 50 49" version="1.1" xmlns="http://www.w3.org/2000/svg" xmlns:xlink="http://www.w3.org/1999/xlink">
    <!-- Generator: Sketch 51.2 (57519) - http://www.bohemiancoding.com/sketch -->
    <title>jquery</title>
    <desc>Created with Sketch.</desc>
    <defs></defs>
    <g id="Page-1" stroke="none" stroke-width="1" fill="none" fill-rule="evenodd">
        <g id="Index-1440" transform="translate(-1222.000000, -662.000000)" fill="#131313" fill-rule="nonzero">
            <path d="M1270.83966,698.369118 L1270.61523,698.943259 C1266.80166,706.28881 1260.04437,710.796062 1250.40506,710.994824 C1245.8991,711.086643 1241.60556,709.942681 1238.80108,708.699339 C1232.74764,706.009571 1227.65742,701.020538 1224.87642,695.691233 C1220.88866,688.05078 1220.16897,677.422416 1228.46174,669.48382 C1228.58951,669.48382 1227.45593,671.205703 1227.5837,671.205703 L1227.35545,671.940259 C1221.3801,690.445645 1239.7916,706.304473 1257.68819,704.49077 C1261.98938,704.054358 1267.47439,701.724846 1270.83966,698.369118 Z M1271.54733,675.268441 C1270.8473,676.856376 1266.81695,679.85563 1265.03739,680.230469 C1257.99015,681.714702 1253.47601,678.409204 1251.11273,674.64839 C1250.76053,674.086132 1250.11074,672.551668 1249.99498,672.161705 C1249.07817,669.077654 1249.49972,664.41431 1252.23485,662 C1251.41087,664.295485 1251.29129,666.962028 1251.7243,668.695253 C1251.98749,669.743615 1252.78799,671.572441 1253.58849,672.723964 C1255.04698,674.820687 1255.97088,675.329474 1257.84327,676.442649 C1258.68636,676.943875 1259.5917,677.34572 1259.98212,677.456443 C1261.75731,677.973332 1265.50535,679.3355 1271.54733,675.268441 Z M1260.00942,690.717323 C1264.51155,690.748109 1269.21518,688.66651 1272,685.743413 C1269.56301,691.861284 1262.50812,695.794394 1253.04736,694.54295 C1245.12536,693.495129 1237.57903,685.610004 1236.80147,677.709216 C1236.23304,671.958622 1238.25995,668.526738 1241.59792,664.364619 C1240.43757,666.541819 1240.00456,668.221033 1239.8959,669.29262 C1238.62744,681.730365 1249.94092,690.652509 1260.00942,690.717323 Z" id="jquery"></path>
        </g>
    </g>
</svg>