<?xml version="1.0" encoding="UTF-8"?>
<svg width="53px" height="53px" viewBox="0 0 53 53" version="1.1" xmlns="http://www.w3.org/2000/svg" xmlns:xlink="http://www.w3.org/1999/xlink">
    <!-- Generator: Sketch 51.2 (57519) - http://www.bohemiancoding.com/sketch -->
    <title>js</title>
    <desc>Created with Sketch.</desc>
    <defs></defs>
    <g id="Page-1" stroke="none" stroke-width="1" fill="none" fill-rule="evenodd">
        <g id="Index-1440" transform="translate(-754.000000, -661.000000)" fill="#131313" fill-rule="nonzero">
            <path d="M754,661 L807,661 L807,714 L754,714 L754,661 Z M767.935688,705.290609 L767.93548,705.290195 C769.109555,707.780574 771.422301,709.844055 775.406617,709.844055 C779.818453,709.844055 782.842352,707.495906 782.842352,702.337309 L782.842352,685.332176 L777.861801,685.332176 L777.861801,702.266918 C777.861801,704.75709 776.82975,705.39723 775.193168,705.39723 C773.485781,705.39723 772.774008,704.223363 771.99143,702.836047 L767.935688,705.290609 Z M785.547629,704.756883 L785.547422,704.75709 C787.005957,707.638965 789.994453,709.844676 794.619324,709.844676 C799.351023,709.844676 802.873039,707.390113 802.873039,702.907059 C802.873039,698.744902 800.489488,696.895078 796.255699,695.080449 L795.010613,694.54693 C792.876121,693.621914 791.951105,693.016762 791.951105,691.522617 C791.951105,690.313141 792.876121,689.388125 794.334863,689.388125 C795.757996,689.388125 796.682598,689.992863 797.536602,691.522617 L801.414711,689.032031 C799.778336,686.150363 797.501406,685.047301 794.33507,685.047301 C789.887832,685.047301 787.041773,687.893566 787.041773,691.629238 C787.041773,695.68498 789.425324,697.60623 793.018766,699.13557 L794.263645,699.669711 C796.540574,700.665531 797.892488,701.270477 797.892488,702.97807 C797.892488,704.401203 796.576598,705.433047 794.512703,705.433047 C792.058141,705.433047 790.670617,704.152352 789.602957,702.408941 L785.547629,704.756883 Z" id="js"></path>
        </g>
    </g>
</svg>