<?xml version="1.0" encoding="UTF-8"?>
<svg width="48px" height="48px" viewBox="0 0 48 48" version="1.1" xmlns="http://www.w3.org/2000/svg" xmlns:xlink="http://www.w3.org/1999/xlink">
    <!-- Generator: Sketch 51.2 (57519) - http://www.bohemiancoding.com/sketch -->
    <title>Skype</title>
    <desc>Created with Sketch.</desc>
    <defs></defs>
    <g id="Page-1" stroke="none" stroke-width="1" fill="none" fill-rule="evenodd">
        <g id="Index-1440" transform="translate(-388.000000, -2742.000000)" fill="#131313" fill-rule="nonzero">
            <path d="M433.500668,2770.68735 C433.833307,2769.08307 434.000228,2767.52027 434.000228,2765.99984 C434.000228,2763.02069 433.422735,2760.17169 432.265998,2757.45284 C431.109917,2754.7342 429.547315,2752.39066 427.578519,2750.42178 C425.609723,2748.45291 423.266477,2746.89044 420.547684,2745.73394 C417.828235,2744.57821 414.980065,2743.99985 412.000438,2743.99985 C410.479648,2743.99985 408.916936,2744.16666 407.31274,2744.50006 C405.146047,2742.83339 402.708449,2742 400.000055,2742 C396.687679,2742 393.859649,2743.17171 391.515746,2745.51514 C389.171623,2747.85923 388,2750.68721 388,2753.99964 C388,2756.70799 388.833403,2759.14555 390.499879,2761.31221 C390.166693,2762.91627 389.999881,2764.47907 389.999881,2765.99984 C389.999881,2768.97865 390.577812,2771.82754 391.734002,2774.54662 C392.890083,2777.26526 394.452685,2779.6089 396.4217,2781.57811 C398.390496,2783.54676 400.734399,2785.10879 403.453082,2786.2654 C406.171984,2787.42168 409.021029,2787.99971 412.000219,2787.99971 C413.520899,2787.99971 415.083611,2787.83268 416.688683,2787.49929 C418.854829,2789.16617 421.292208,2790 424.000821,2790 C427.312868,2790 430.141664,2788.82763 432.484254,2786.48431 C434.828377,2784.14023 436,2781.31224 436,2777.99948 C435.999453,2775.29157 435.166379,2772.85434 433.500668,2770.68735 Z M423.624619,2775.32791 C422.937669,2776.5468 422.015388,2777.52062 420.859417,2778.24991 C419.702789,2778.97921 418.426853,2779.53579 417.031172,2779.92162 C415.635491,2780.30668 414.177311,2780.49987 412.656083,2780.49987 C409.13563,2780.49987 406.104558,2779.81742 403.562648,2778.45251 C401.020737,2777.0875 399.749946,2775.44765 399.749946,2773.53055 C399.749946,2772.5934 400.015707,2771.81287 400.547009,2771.18734 C401.078202,2770.56213 401.864648,2770.25019 402.906346,2770.25019 C403.510547,2770.25019 404.072825,2770.41678 404.59362,2770.74974 C405.114414,2771.08314 405.593506,2771.48473 406.031222,2771.95363 C406.468939,2772.42265 406.942558,2772.89078 407.453064,2773.3598 C407.963241,2773.82881 408.640339,2774.22953 409.484031,2774.56293 C410.327941,2774.89633 411.281089,2775.06335 412.343913,2775.06335 C413.698,2775.06335 414.791362,2774.79814 415.625531,2774.26707 C416.458495,2773.73523 416.875087,2773.06318 416.875087,2772.25113 C416.875087,2771.4173 416.54212,2770.79254 415.875749,2770.37595 C415.418001,2770.08338 414.250756,2769.70849 412.375655,2769.25043 L407.812629,2768.12479 C406.562744,2767.83342 405.489741,2767.49521 404.593729,2767.11004 C403.697717,2766.72432 402.864315,2766.21973 402.093631,2765.5942 C401.323166,2764.96943 400.739762,2764.18321 400.343858,2763.2349 C399.948063,2762.28724 399.750165,2761.17758 399.750165,2759.90681 C399.750165,2758.38583 400.099222,2757.04774 400.796899,2755.89113 C401.494575,2754.73474 402.42222,2753.82835 403.578081,2753.17217 C404.734162,2752.51587 405.979012,2752.02639 407.312631,2751.7035 C408.645703,2751.3805 410.020806,2751.21905 411.437503,2751.21905 C413.437931,2751.21905 415.332953,2751.45876 417.124977,2751.93784 C418.916562,2752.41693 420.395759,2753.12007 421.562128,2754.04715 C422.728607,2754.97456 423.311792,2756.01099 423.311792,2757.15665 C423.311792,2758.0938 423.015493,2758.89622 422.421034,2759.56269 C421.828436,2760.22905 421.041771,2760.56245 420.062244,2760.56245 C419.520653,2760.56245 419.020874,2760.43734 418.56247,2760.18735 C418.104285,2759.93746 417.687912,2759.63547 417.312147,2759.28128 C416.937149,2758.9273 416.540807,2758.57825 416.124324,2758.23456 C415.707733,2757.89087 415.145126,2757.59403 414.437598,2757.34404 C413.728429,2757.09404 412.926878,2756.96894 412.031086,2756.96894 C409.031318,2756.96894 407.531106,2757.77047 407.531106,2759.37497 C407.531106,2759.72895 407.609368,2760.04155 407.765453,2760.31234 C407.921647,2760.58313 408.093823,2760.80193 408.280993,2760.96863 C408.468055,2761.13555 408.780663,2761.30203 409.21838,2761.46884 C409.656097,2761.63576 410.020696,2761.75583 410.312289,2761.82829 C410.603772,2761.90119 411.062504,2762.01054 411.687283,2762.15622 L414.937487,2762.90609 C415.958169,2763.13551 416.869177,2763.37522 417.671822,2763.62488 C418.474248,2763.87532 419.333482,2764.22918 420.250072,2764.68769 C421.166661,2765.14598 421.927056,2765.65615 422.530928,2766.21875 C423.135457,2766.78178 423.64049,2767.49455 424.047231,2768.35914 C424.453752,2769.22394 424.656247,2770.17718 424.656247,2771.21853 C424.656138,2772.7393 424.312991,2774.10935 423.624619,2775.32791 Z" id="Skype"></path>
        </g>
    </g>
</svg>