<?xml version="1.0" encoding="UTF-8"?>
<svg width="53px" height="53px" viewBox="0 0 53 53" version="1.1" xmlns="http://www.w3.org/2000/svg" xmlns:xlink="http://www.w3.org/1999/xlink">
    <!-- Generator: Sketch 51.2 (57519) - http://www.bohemiancoding.com/sketch -->
    <title>bootstrap</title>
    <desc>Created with Sketch.</desc>
    <defs></defs>
    <g id="Page-1" stroke="none" stroke-width="1" fill="none" fill-rule="evenodd">
        <g id="Index-1440" transform="translate(-1070.000000, -661.000000)" fill="#131313" fill-rule="nonzero">
            <path d="M1070,707.166105 L1070,707.165898 L1070,667.833895 C1070,664.059715 1073.0593,661 1076.8341,661 L1116.16611,661 C1119.94029,661 1123,664.059301 1123,667.834102 L1123,707.166105 C1123,710.940285 1119.9407,714 1116.1659,714 L1076.83389,714 C1073.05971,714 1070,710.940699 1070,707.166105 Z M1083.92178,671.455078 L1083.92178,703.544922 L1099.47231,703.544922 C1100.91055,703.544922 1102.31133,703.365219 1103.67463,703.005605 C1105.03793,702.645992 1106.25134,702.09177 1107.31507,701.34273 C1108.37859,700.593691 1109.22514,699.62727 1109.8543,698.443879 C1110.48368,697.260281 1110.79816,695.859508 1110.79816,694.241559 C1110.79816,692.233977 1110.31122,690.518723 1109.33755,689.09559 C1108.36368,687.67225 1106.88796,686.676016 1104.9104,686.10668 C1106.34864,685.41768 1107.43494,684.533656 1108.16907,683.455023 C1108.903,682.376391 1109.27006,681.028203 1109.27006,679.410047 C1109.27006,677.911969 1109.02287,676.653633 1108.52848,675.634832 C1108.03409,674.616238 1107.33743,673.799707 1106.4385,673.185445 C1105.53977,672.571184 1104.46114,672.129172 1103.2026,671.859617 C1101.94426,671.589855 1100.55094,671.455078 1099.02284,671.455078 L1083.92178,671.455078 Z M1090.97802,684.443805 L1090.97802,676.938301 L1097.5846,676.938301 C1098.21397,676.938301 1098.82057,676.99068 1099.40482,677.095645 C1099.98906,677.200402 1100.50602,677.387559 1100.95548,677.65732 C1101.40474,677.927082 1101.76435,678.301602 1102.03411,678.780879 C1102.30367,679.260363 1102.43865,679.874625 1102.43865,680.623457 C1102.43865,681.971852 1102.03411,682.945727 1101.22504,683.544875 C1100.41616,684.14423 1099.38246,684.443805 1098.12391,684.443805 L1090.97802,684.443805 Z M1090.97802,698.061699 L1090.97802,689.252727 L1098.66323,689.252727 C1100.19133,689.252727 1101.41985,689.60468 1102.3488,690.309 C1103.27754,691.013113 1103.74212,692.189051 1103.74212,693.83702 C1103.74212,694.676117 1103.59968,695.365117 1103.31502,695.904434 C1103.03035,696.44375 1102.64837,696.870855 1102.16889,697.185336 C1101.68961,697.500023 1101.13518,697.724652 1100.50602,697.859637 C1099.87664,697.994207 1099.21766,698.061699 1098.52845,698.061699 L1090.97802,698.061699 Z" id="bootstrap"></path>
        </g>
    </g>
</svg>