<?xml version="1.0" encoding="UTF-8"?>
<svg width="56px" height="48px" viewBox="0 0 56 48" version="1.1" xmlns="http://www.w3.org/2000/svg" xmlns:xlink="http://www.w3.org/1999/xlink">
    <!-- Generator: Sketch 51.2 (57519) - http://www.bohemiancoding.com/sketch -->
    <title>Git</title>
    <desc>Created with Sketch.</desc>
    <defs></defs>
    <g id="Page-1" stroke="none" stroke-width="1" fill="none" fill-rule="evenodd">
        <g id="Index-1440" transform="translate(-276.000000, -2742.000000)" fill="#131313" fill-rule="nonzero">
            <path d="M327.42167,2755.15932 C328.02754,2753.31788 328.330829,2751.40898 328.330829,2749.4319 C328.330829,2746.79547 327.758081,2744.3181 326.614117,2742 C324.213974,2742 322.093781,2742.44358 320.253538,2743.32967 C318.414237,2744.21601 316.316558,2745.59093 313.961561,2747.45446 C311.000339,2746.7273 307.858417,2746.36371 304.538624,2746.36371 C300.903754,2746.36371 297.437326,2746.76168 294.139457,2747.55703 C291.739078,2745.64777 289.618885,2744.24478 287.779113,2743.34687 C285.939341,2742.44896 283.808068,2742.00012 281.384822,2742.00012 C280.240622,2744.31821 279.668581,2746.79571 279.668581,2749.43202 C279.668581,2751.43214 279.971281,2753.36397 280.577151,2755.22726 C277.525521,2758.84112 276,2763.34083 276,2768.72723 C276,2773.455 276.695219,2777.21585 278.086481,2780.01168 C278.827081,2781.48834 279.791524,2782.79521 280.980751,2783.93193 C282.169507,2785.06793 283.526939,2785.989 285.052696,2786.69372 C286.578688,2787.39772 288.115171,2787.9834 289.663441,2788.44883 C291.211594,2788.9145 292.922176,2789.25576 294.79566,2789.4708 C296.669026,2789.68764 298.323618,2789.82949 299.759437,2789.89815 C301.195256,2789.96549 302.787964,2790 304.538506,2790 C306.602237,2790 308.475014,2789.94842 310.158485,2789.84681 C311.841367,2789.74472 313.764712,2789.49421 315.93005,2789.09743 C318.095036,2788.69946 320.002231,2788.15928 321.651637,2787.47773 C323.300689,2786.79617 324.882789,2785.81862 326.397112,2784.54626 C327.911435,2783.27306 329.094533,2781.76201 329.947584,2780.0118 C331.31539,2777.19352 332,2773.43184 332,2768.72735 C331.999175,2763.31814 330.473536,2758.79562 327.42167,2755.15932 Z M323.384615,2779.95974 C322.666529,2781.44881 321.757723,2782.61825 320.658552,2783.47139 C319.558908,2784.32381 318.190513,2785.00536 316.552895,2785.51736 C314.914451,2786.02853 313.344728,2786.36357 311.841367,2786.52214 C310.337535,2786.68142 308.666676,2786.76071 306.826433,2786.76071 L301.172506,2786.76071 C299.332852,2786.76071 297.66105,2786.68142 296.158043,2786.52214 C294.654919,2786.36357 293.084488,2786.02853 291.446516,2785.51736 C289.809133,2785.00536 288.440738,2784.32381 287.341095,2783.47139 C286.241452,2782.61813 285.332881,2781.44881 284.614913,2779.95974 C283.897063,2778.47066 283.53802,2776.72677 283.53802,2774.72701 C283.53802,2771.999 284.312096,2769.68055 285.860366,2767.77236 C287.408518,2765.8631 289.50608,2764.90883 292.153286,2764.90883 C293.118436,2764.90883 295.305935,2765.14728 298.716137,2765.62466 C300.308964,2765.87457 302.07035,2765.99958 303.999587,2765.99958 C305.929415,2765.99958 307.690565,2765.87493 309.283156,2765.62466 C312.738857,2765.14716 314.925649,2764.90883 315.846124,2764.90883 C318.493213,2764.90883 320.590774,2765.86358 322.138927,2767.77236 C323.687197,2769.68138 324.460802,2771.999 324.460802,2774.72701 C324.460802,2776.72713 324.101759,2778.47197 323.384615,2779.95974 Z M295.670164,2769.34061 C294.98579,2768.56747 294.172815,2768.18096 293.230298,2768.18096 C292.287544,2768.18096 291.474452,2768.56795 290.790195,2769.34061 C290.106293,2770.11291 289.6236,2770.97679 289.343296,2771.93034 C289.062404,2772.88581 288.92237,2773.81739 288.92237,2774.72701 C288.92237,2775.63567 289.062757,2776.56737 289.343296,2777.52272 C289.623246,2778.47687 290.105703,2779.34027 290.790195,2780.11245 C291.474806,2780.88559 292.287544,2781.27222 293.230298,2781.27222 C294.172815,2781.27222 294.986144,2780.88487 295.670164,2780.11245 C296.354303,2779.34015 296.83676,2778.47687 297.117063,2777.52272 C297.397603,2776.56737 297.53799,2775.63567 297.53799,2774.72701 C297.53799,2773.81823 297.397956,2772.88581 297.117063,2771.93034 C296.836642,2770.97715 296.354657,2770.11362 295.670164,2769.34061 Z M317.208744,2769.34061 C316.524605,2768.56747 315.711395,2768.18096 314.769113,2768.18096 C313.827185,2768.18096 313.013503,2768.56795 312.329011,2769.34061 C311.644872,2770.11291 311.162533,2770.97679 310.882583,2771.93034 C310.601454,2772.88581 310.461067,2773.81739 310.461067,2774.72701 C310.461067,2775.63567 310.601454,2776.56737 310.882583,2777.52272 C311.162533,2778.47687 311.64499,2779.34027 312.329011,2780.11245 C313.013621,2780.88559 313.827185,2781.27222 314.769113,2781.27222 C315.711395,2781.27222 316.524723,2780.88487 317.208744,2780.11245 C317.892529,2779.34015 318.375221,2778.47687 318.655996,2777.52272 C318.936418,2776.56737 319.076687,2775.63567 319.076687,2774.72701 C319.076687,2773.81823 318.936418,2772.88581 318.655996,2771.93034 C318.375339,2770.97715 317.892529,2770.11362 317.208744,2769.34061 Z" id="Git"></path>
        </g>
    </g>
</svg>