<?xml version="1.0" encoding="UTF-8"?>
<svg width="53px" height="60px" viewBox="0 0 53 60" version="1.1" xmlns="http://www.w3.org/2000/svg" xmlns:xlink="http://www.w3.org/1999/xlink">
    <!-- Generator: Sketch 51.2 (57519) - http://www.bohemiancoding.com/sketch -->
    <title>html</title>
    <desc>Created with Sketch.</desc>
    <defs></defs>
    <g id="Page-1" stroke="none" stroke-width="1" fill="none" fill-rule="evenodd">
        <g id="Index-1440" transform="translate(-602.000000, -657.000000)" fill="#131313" fill-rule="nonzero">
            <path d="M628.569597,674.613317 L644.596327,674.613317 L644.729289,673.124733 L645.031778,669.767021 L645.190294,667.990177 L628.569597,667.990177 L611.954925,667.990177 L612.113649,669.767021 L613.744514,688.018657 L628.569597,688.018657 L636.73992,688.018657 L635.96957,696.608395 L628.56939,698.60216 L628.56939,698.602644 L628.563365,698.604233 L621.173988,696.612542 L620.701556,691.330331 L614.040978,691.330331 L614.970468,701.729678 L628.561911,705.495724 L628.59245,705.487429 L628.59245,705.486234 L642.171636,701.729678 L642.271357,700.610648 L643.830755,683.174021 L643.992595,681.395518 L628.569597,681.395518 L619.812579,681.395518 L619.206146,674.613317 L628.569597,674.613317 Z M655,657 L650.1716,710.99382 L628.46759,717 L606.823413,711.002115 L602,657 L655,657 Z" id="html"></path>
        </g>
    </g>
</svg>