<?xml version="1.0" encoding="UTF-8"?>
<svg width="55px" height="53px" viewBox="0 0 55 53" version="1.1" xmlns="http://www.w3.org/2000/svg" xmlns:xlink="http://www.w3.org/1999/xlink">
    <!-- Generator: Sketch 51.2 (57519) - http://www.bohemiancoding.com/sketch -->
    <title>LinkedIn</title>
    <desc>Created with Sketch.</desc>
    <defs></defs>
    <g id="Page-1" stroke="none" stroke-width="1" fill="none" fill-rule="evenodd">
        <g id="Index-1440" transform="translate(-165.000000, -2739.000000)" fill="#131313" fill-rule="nonzero">
            <path d="M220,2771.49426 L220,2792 L208.211719,2792 L208.211719,2772.86761 C208.211719,2768.0614 206.506671,2764.78134 202.239705,2764.78134 C198.982416,2764.78134 197.044002,2766.99186 196.191222,2769.13016 C195.880237,2769.89459 195.800189,2770.95859 195.800189,2772.02864 L195.800189,2792 L184.007944,2792 C184.007944,2792 184.166762,2759.59601 184.007944,2756.23871 L195.799038,2756.23871 L195.799038,2761.30773 C195.775126,2761.34565 195.744053,2761.38652 195.721548,2761.42328 L195.799038,2761.42328 L195.799038,2761.30773 C197.365601,2758.87452 200.163316,2755.39858 206.425473,2755.39858 C214.183862,2755.39846 220,2760.50977 220,2771.49426 Z M171.672754,2739 C167.638643,2739 165,2741.66843 165,2745.1775 C165,2748.6101 167.562303,2751.35951 171.516239,2751.35951 L171.595008,2751.35951 C175.707249,2751.35951 178.264693,2748.61062 178.264693,2745.1775 C178.187203,2741.66843 175.707249,2739 171.672754,2739 Z M165.700356,2792 L177.488125,2792 L177.488125,2756.23871 L165.700356,2756.23871 L165.700356,2792 Z" id="LinkedIn"></path>
        </g>
    </g>
</svg>