<?xml version="1.0" encoding="UTF-8"?>
<svg width="66px" height="58px" viewBox="0 0 66 58" version="1.1" xmlns="http://www.w3.org/2000/svg" xmlns:xlink="http://www.w3.org/1999/xlink">
    <!-- Generator: Sketch 51.2 (57519) - http://www.bohemiancoding.com/sketch -->
    <title>react</title>
    <desc>Created with Sketch.</desc>
    <defs></defs>
    <g id="Page-1" stroke="none" stroke-width="1" fill="none" fill-rule="evenodd">
        <g id="Index-1440" transform="translate(-905.000000, -658.000000)" fill="#131313" fill-rule="nonzero">
            <path d="M959.265485,676.798814 C966.393705,679.22254 971,683.019258 971,686.944939 C971,691.039105 966.077369,695.042105 958.511011,697.51805 C958.111137,697.649031 957.701331,697.774819 957.283639,697.896568 C957.432606,698.488579 957.565508,699.069915 957.679424,699.639135 C959.173184,707.091493 958.022925,713.216732 954.482767,715.240879 C951.055064,717.20069 945.515242,715.275499 939.905902,710.507963 C939.296192,709.988496 938.701262,709.452343 938.121802,708.900128 C937.661757,709.33952 937.202296,709.758717 936.744587,710.153968 C930.953566,715.153751 925.006568,717.228098 921.463196,715.210009 C918.032573,713.255391 916.95446,707.553678 918.334888,700.372802 C918.485726,699.592394 918.658615,698.816303 918.853352,698.045436 C918.253915,697.876429 917.658835,697.692691 917.068668,697.494393 C909.790313,695.037489 905,690.985155 905,686.944939 C905,683.033395 909.462586,679.262065 916.450017,676.855938 C917.231072,676.587051 918.047469,676.334322 918.892784,676.097171 C918.711697,675.381645 918.549046,674.661691 918.40499,673.938004 C916.957089,666.630186 917.975907,660.78999 921.415585,658.823255 C925.00277,656.772277 930.976934,658.97472 936.937076,664.201844 C937.307813,664.527695 937.672407,664.860301 938.03067,665.199492 C938.565652,664.689385 939.113597,664.19271 939.673981,663.709943 C945.361017,658.821812 950.991972,656.776893 954.434863,658.738146 C958.025846,660.783066 959.077378,666.995144 957.469118,674.706291 C957.368625,675.18534 957.259169,675.662512 957.140806,676.137562 C957.854543,676.340318 958.562994,676.560805 959.265485,676.798814 Z M957.624219,694.874772 L957.624511,694.874772 C964.157154,692.736666 968.180725,689.465025 968.180725,686.944939 C968.180725,684.579202 964.455381,681.508649 958.347731,679.432282 C957.716228,679.217347 957.060773,679.013951 956.385748,678.820653 C955.573731,681.415751 954.490069,684.157408 953.173609,686.958787 C954.552869,689.827964 955.680345,692.605396 956.515729,695.217227 C956.893112,695.10673 957.263485,694.99277 957.624219,694.874772 Z M954.913603,700.180081 C954.810494,699.665677 954.690736,699.139734 954.556374,698.603115 C951.822682,699.22715 948.80829,699.68443 945.617474,699.963991 C943.803581,702.557646 941.944998,704.893378 940.085247,706.902523 C940.640806,707.430486 941.194905,707.929599 941.744915,708.396976 C946.541654,712.474121 950.989927,714.019928 953.069916,712.830713 C954.047257,712.27188 954.837659,710.876672 955.230815,708.783861 C955.668369,706.454764 955.574023,703.475379 954.913603,700.180081 Z M927.500744,712.625298 L927.501036,712.625298 C929.762414,711.836238 932.328444,710.267928 934.889217,708.056829 C935.317809,707.68587 935.737088,707.304543 936.146675,706.913198 C934.21945,704.870298 932.307122,702.537451 930.481253,699.999477 C927.282843,699.743285 924.290357,699.318318 921.587043,698.727749 C921.406166,699.444663 921.245453,700.166394 921.105091,700.89211 C919.924746,707.032927 920.789924,711.611493 922.871957,712.797246 C923.850174,713.354348 925.468658,713.334153 927.500744,712.625298 Z M917.98058,694.859193 C918.519416,695.040263 919.062677,695.208223 919.609871,695.362922 C920.443502,692.678388 921.542353,689.859988 922.8667,687.012737 C921.559295,684.20732 920.475925,681.433061 919.649888,678.779685 C918.885875,678.993064 918.12835,679.228488 917.378286,679.485656 C911.40237,681.543558 907.819275,684.571412 907.819275,686.944939 C907.819275,688.060585 908.645896,689.435309 910.282781,690.82013 C912.10456,692.360744 914.762308,693.772685 917.98058,694.859193 Z M921.17198,673.403116 L921.17198,673.402828 C921.306078,674.076008 921.457332,674.745744 921.6256,675.411396 C924.357247,674.800055 927.328701,674.343641 930.432766,674.059464 C932.242861,671.536204 934.137664,669.220956 936.054958,667.187288 C935.724017,666.874837 935.393661,666.572773 935.064765,666.284269 C929.918683,661.771193 925.036361,659.970926 922.828144,661.233421 C920.755165,662.418597 919.931465,667.141704 921.17198,673.403116 Z M949.641337,680.346553 C950.297002,681.464703 950.929995,682.595673 951.539937,683.738789 C952.374737,681.808694 953.083645,679.925914 953.652348,678.125357 C951.757838,677.698082 949.740357,677.348992 947.634371,677.086453 C948.326984,678.158792 948.996128,679.245744 949.641337,680.346553 Z M938.031546,669.177391 C936.710705,670.585005 935.397166,672.136582 934.114881,673.806734 C936.713677,673.686594 939.316755,673.687172 941.915497,673.808465 C940.63438,672.122733 939.331941,670.568848 938.031546,669.177391 Z M926.347271,680.365594 C926.995592,679.255325 927.670219,678.160244 928.370594,677.08126 C926.278337,677.339471 924.270203,677.679618 922.387084,678.09593 C922.960753,679.922163 923.663235,681.81331 924.484307,683.736769 C925.078658,682.598882 925.699815,681.474851 926.347271,680.365594 Z M928.430765,697.007397 C927.713226,695.907886 927.022329,694.791633 926.358663,693.659591 C925.708264,692.549836 925.084377,691.425127 924.48752,690.286397 C923.648923,692.251113 922.93096,694.182938 922.348236,696.041484 C924.230771,696.446256 926.269283,696.769092 928.430765,697.007397 Z M938.109535,704.909246 C939.401167,703.504518 940.698933,701.926975 941.984139,700.201718 C940.675273,700.259419 939.345377,700.289135 938,700.289135 C936.69055,700.289135 935.402131,700.264324 934.13854,700.215278 C935.440395,701.909665 936.773212,703.484899 938.109535,704.909246 Z M951.566809,690.186286 C950.954806,691.351495 950.316621,692.503106 949.652729,693.640262 C948.999652,694.759165 948.324104,695.865125 947.626485,696.957486 C949.803448,696.699563 951.869417,696.352203 953.783206,695.920889 C953.192595,694.093791 952.448928,692.172351 951.566809,690.186286 Z M947.210253,692.249093 L947.210545,692.249093 C948.218975,690.523988 949.164883,688.763957 950.046469,686.972346 C949.15572,685.198805 948.206795,683.454354 947.201198,681.741761 C946.201251,680.033643 945.140589,678.360911 944.02119,676.726688 C942.058914,676.578973 940.04377,676.501654 938.000292,676.501654 C935.965869,676.501654 933.953354,676.578396 931.990494,676.724957 C930.859657,678.361699 929.792167,680.040274 928.790331,681.757051 L928.790331,681.756474 C927.788181,683.472886 926.851752,685.225925 925.983032,687.011872 C926.853968,688.797283 927.793234,690.549383 928.798802,692.264384 C929.809091,693.988532 930.885052,695.674315 932.024376,697.318116 C933.948388,697.441308 935.946299,697.50449 938,697.50449 C940.062171,697.50449 942.085787,697.43323 944.043973,697.295036 C945.154495,695.647398 946.21048,693.964528 947.210253,692.249093 Z M953.026687,661.15062 C950.951663,659.968618 946.397653,661.622325 941.524969,665.810833 C941.007615,666.256685 940.501555,666.715164 940.007258,667.185845 C941.89359,669.193259 943.772619,671.512547 945.58622,674.063214 C948.69934,674.351719 951.672839,674.816211 954.410912,675.440246 C954.517724,675.010059 954.616662,674.578001 954.707678,674.144284 C956.096284,667.486467 955.236657,662.409654 953.026687,661.15062 Z M938,681.123784 C941.255076,681.123784 943.893546,683.730133 943.893546,686.944939 C943.893546,690.160032 941.255076,692.766382 938,692.766382 C934.745216,692.766382 932.106454,690.160032 932.106454,686.944939 C932.106454,683.730133 934.745216,681.123784 938,681.123784 Z" id="react"></path>
        </g>
    </g>
</svg>